<svg xmlns="http://www.w3.org/2000/svg" width="73" height="73" viewBox="0 0 73 73">
  <g id="users" transform="translate(-1385 -131.21)">
    <g id="Group_2" data-name="Group 2" transform="translate(1385 131.21)">
      <path id="Subtraction_6" data-name="Subtraction 6" d="M36.5,73A36.51,36.51,0,0,1,22.292,2.868,36.509,36.509,0,0,1,50.708,70.132,36.272,36.272,0,0,1,36.5,73Zm0-69.826A33.326,33.326,0,1,0,69.826,36.5,33.364,33.364,0,0,0,36.5,3.174Z" transform="translate(0 0)" fill="#10d078"/>
    </g>
    <path id="account-multiple" d="M30.008,30.007v4H2v-4s0-8,14-8,14,8,14,8M23.006,11a7,7,0,1,0-7,7,7,7,0,0,0,7-7m6.882,11a10.643,10.643,0,0,1,4.121,8v4h8v-4s0-7.262-12.123-8M28.007,4a6.782,6.782,0,0,0-3.861,1.18,10,10,0,0,1,0,11.643A6.782,6.782,0,0,0,28.007,18a7,7,0,0,0,0-14Z" transform="translate(1399.373 148.443)" fill="#10d078"/>
  </g>
</svg>
